<?xml version="1.0" standalone="no"?><!DOCTYPE svg PUBLIC "-//W3C//DTD SVG 1.1//EN" "http://www.w3.org/Graphics/SVG/1.1/DTD/svg11.dtd"><svg t="1776769912136" class="icon" viewBox="0 0 1024 1024" version="1.1" xmlns="http://www.w3.org/2000/svg" p-id="5116" xmlns:xlink="http://www.w3.org/1999/xlink" width="200" height="200"><path d="M832 181.248c74.581333 73.045333 108.714667 179.541333 102.4 316.586667a156.842667 156.842667 0 0 1-29.866667 84.138666c-68.266667 93.354667-110.592 170.666667-115.029333 209.237334a136.533333 136.533333 0 0 1-3.413333 20.309333c-12.8 40.277333-20.864 81.92-23.893334 124.074667a25.6 25.6 0 0 1-25.258666 29.184h-0.512l-341.333334-1.536a25.6 25.6 0 0 1-25.429333-25.6V827.733333a13.994667 13.994667 0 0 0-13.141333 2.56 82.944 82.944 0 0 1-80.042667 29.184c-47.786667-12.629333-81.578667-76.629333-103.253333-195.584-34.133333-3.584-91.136-17.066667-91.136-62.805333 0-39.253333 58.368-120.661333 88.234666-159.573333V439.466667c11.093333-232.789333 141.482667-360.618667 367.445334-360.618667H547.584l12.544-0.042667c46.677333 0.469333 176.896 9.045333 271.872 102.442667z m-268.458667 29.184c-4.778667 19.797333 4.266667 35.669333-3.925333 40.448-8.192 4.778667-14.336-4.949333-38.4-22.016l5.418667 4.266667c10.368 8.96 18.346667 20.352 23.168 33.237333l2.133333 6.528c8.533333 61.269333-75.946667 47.616-91.989333-3.584a307.2 307.2 0 0 1-7.68-47.786667c-0.170667 13.824-2.901333 27.136-14.165334 30.890667-11.946667-0.170667-13.824-7.509333-20.48-19.626667 2.048 21.333333 26.794667 32.768 23.722667 46.250667-3.072 13.482667-32.426667 6.826667-46.762667 8.874667 42.154667 1.024 100.693333 24.234667 68.266667 73.386666-44.885333 2.389333-77.141333-40.448-84.48-40.448 14.506667 15.872 21.845333 23.04 18.090667 30.72-3.754667 7.68-29.866667 9.557333-52.565334 13.482667 23.04 3.072 51.882667-4.949333 53.76 10.922667-0.341333 7.338667-13.653333 10.24-30.72 22.016 32.085333-8.533333 103.424-45.909333 92.16 25.6-13.824 21.333333-58.026667 13.482667-92.16 14.848 29.013333 9.386667 35.157333 5.973333 38.4 14.677333 2.218667 16.042667-25.941333 17.237333-38.4 33.109333 11.136-8.448 24.448-13.525333 38.4-14.677333 13.141333 11.093333-5.290667 30.208 7.509334 44.032-12.288-72.704 104.618667-101.376 119.466666-33.109333-28.842667 55.125333-1.024 138.069333 39.424 159.402666 38.912 17.578667 61.269333 5.12 103.424 13.994667 12.501333 1.706667 25.173333 1.706667 37.717334 0-7.68-1.536-25.770667-1.536-24.746667-11.093333 2.218667-4.608 7.338667-7.509333 16.042667-7.509334-14.165333-2.389333-21.504 0.341333-21.504-7.68s13.653333-17.237333 34.133333-14.677333a153.6 153.6 0 0 0-26.112-4.096c-5.973333-2.218667 4.437333-13.482667 0-28.330667 0.64 16.64-8.234667 32.256-22.869333 40.277334-6.485333-6.826667-5.973333-23.04-7.338667-34.133334-3.370667 4.181333-4.821333 11.093333-5.845333 18.474667l-1.194667 9.045333c-1.792 13.44-4.309333 25.685333-16.512 23.68a85.333333 85.333333 0 0 1-95.914667-77.141333c-25.941333-109.226667 103.936-154.794667 130.730667-78.165333 3.84 14.677333 5.077333 29.952 3.584 45.056 2.048-9.898667 2.048-35.498667 15.36-44.032 13.312-8.533333 16.725333-2.389333 53.76 11.093333-4.608-4.266667-37.546667-13.653333-37.546667-32.085333-2.048-11.605333 25.6-14.165333 49.152-26.794667-15.530667 6.144-56.149333 21.674667-91.989333 7.338667-24.576-9.557333-36.352-48.128-19.285333-80.725334 17.066667-32.597333 82.773333-25.941333 119.466666-21.845333l0.682667-0.170667c-9.557333-5.461333-27.989333-7.850667-26.624-14.336 1.365333-6.485333 21.504-7.509333 41.813333-15.189333-17.92 1.877333-43.008 5.973333-53.76 0s-1.877333-27.136 0-51.2c-9.898667 36.352-17.92 55.808-50.005333 66.048-54.613333 17.408-113.152-13.141333-96.085333-63.146667a123.733333 123.733333 0 0 1 25.429333-39.253333c-23.210667 15.36-24.405333 20.309333-32.426667 18.090667-5.290667-2.389333-6.826667-13.312-9.728-32.938667z" fill="#2c2c2c" p-id="5117"></path></svg>